Coordinates
version=1
nRows=16
nColumns=22
inDegrees=yes

Units are S.I. units (second, meters, Newtons, ...)
If the header above contains a line with 'inDegrees', this indicates whether rotational values are in degrees (yes) or radians (no).

endheader
time	pelvis_tilt	pelvis_list	pelvis_rotation	pelvis_tx	pelvis_ty	pelvis_tz	hip_flexion_r	hip_adduction_r	hip_rotation_r	knee_angle_r	ankle_angle_r	subtalar_angle_r	hip_flexion_l	hip_adduction_l	hip_rotation_l	knee_angle_l	ankle_angle_l	subtalar_angle_l	lumbar_extension	lumbar_bending	lumbar_rotation
      2.44000000	      4.06214821	     -1.14813853	    -11.46087341	      0.29633069	      0.90101920	      0.02213827	     -7.40135069	      1.68621990	      5.44091566	    -42.96364486	     -3.22446626	      1.60126376	     21.58855989	     -4.48655968	    -13.69329867	    -28.73807637	     -0.53348136	     -3.51688837	     -6.47326631	     -4.10531602	     11.34873857
      2.45000000	      4.24861415	     -0.99415373	    -11.39760839	      0.30739865	      0.90224842	      0.02104954	     -6.46640964	      1.29665145	      4.93458220	    -45.36718216	     -6.38719525	      2.07633452	     21.02848540	     -4.08000721	    -13.60194914	    -29.36764155	      0.01291829	     -3.97122869	     -6.53054636	     -4.22522574	     11.05316547
      2.46000000	      4.44043165	     -0.85132499	    -11.34469765	      0.31815350	      0.90354848	      0.01996348	     -5.36570378	      0.90549507	      4.43919791	    -47.93040681	     -9.56615486	      2.50289089	     20.38182766	     -3.67024775	    -13.53435298	    -29.82593766	      0.58442929	     -4.33139460	     -6.63410857	     -4.32911941	     10.77156798
      2.47000000	      4.61542973	     -0.69593871	    -11.31269458	      0.32856153	      0.90482565	      0.01892844	     -4.08549176	      0.51043105	      4.01642817	    -50.62750301	    -12.60331483	      2.94610689	     19.69084600	     -3.24988669	    -13.51685507	    -30.13912604	      1.22626217	     -4.64599282	     -6.75346386	     -4.44413179	     10.46151054
      2.48000000	      4.79097189	     -0.53326189	    -11.30596964	      0.33860318	      0.90609194	      0.01795312	     -2.66564219	      0.11098091	      3.65807202	    -53.40622304	    -15.36852317	      3.32649174	     18.93564803	     -2.81703336	    -13.51876516	    -30.29610605	      1.86919074	     -4.85813999	     -6.91308996	     -4.57030213	     10.17527810
      2.49000000	      4.93779187	     -0.33628786	    -11.32321099	      0.34829697	      0.90725754	      0.01706100	     -1.09797204	     -0.29991692	      3.38929100	    -56.21168633	    -17.69455289	      3.74906950	     18.17090027	     -2.35934161	    -13.56683308	    -30.33136846	      2.52419125	     -5.03578587	     -7.06814975	     -4.73318022	      9.85459320
      2.50000000	      5.08214892	     -0.11706299	    -11.36290957	      0.35768116	      0.90835994	      0.01626128	      0.54620956	     -0.71186992	      3.20045541	    -58.95574866	    -19.46879984	      4.15486844	     17.37352520	     -1.88432552	    -13.64761523	    -30.25752128	      3.16411188	     -5.15482964	     -7.24471986	     -4.92564660	      9.53050899
      2.51000000	      5.23392174	      0.12031558	    -11.41864006	      0.36681255	      0.90941501	      0.01555141	      2.21703726	     -1.12074863	      3.07503927	    -61.56008981	    -20.62144859	      4.51969488	     16.54441386	     -1.39488875	    -13.75413691	    -30.10123262	      3.77226429	     -5.22967978	     -7.44548082	     -5.14528638	      9.20144650
      2.52000000	      5.38480468	      0.37098859	    -11.47646677	      0.37574628	      0.91041661	      0.01491570	      3.88801659	     -1.51196943	      3.00261851	    -63.96102569	    -21.12359856	      4.84673260	     15.70103087	     -0.89630341	    -13.88022325	    -29.88268880	      4.35893424	     -5.29111562	     -7.65436268	     -5.38168740	      8.85116218
      2.53000000	      5.54711836	      0.61938414	    -11.52715156	      0.38452465	      0.91140301	      0.01434904	      5.51724906	     -1.87527108	      2.95442165	    -66.10634090	    -21.04492548	      5.08162738	     14.83785128	     -0.40085930	    -14.00496648	    -29.62473166	      4.89759897	     -5.34208625	     -7.88036664	     -5.61878042	      8.47360593
      2.54000000	      5.71699076	      0.84468264	    -11.55023904	      0.39316600	      0.91239451	      0.01382325	      7.08455253	     -2.18715890	      2.90478965	    -67.95882358	    -20.49470516	      5.20440979	     13.96439969	      0.07411917	    -14.09934086	    -29.34247916	      5.39854383	     -5.39746178	     -8.12289325	     -5.82943423	      8.06515008
      2.55000000	      5.88939232	      1.03954060	    -11.52966648	      0.40168102	      0.91339834	      0.01331966	      8.58703216	     -2.44715179	      2.82488900	    -69.50459103	    -19.62770255	      5.18652449	     13.09356855	      0.51913327	    -14.15410072	    -29.05506286	      5.84598165	     -5.47374302	     -8.37949341	     -6.00450559	      7.61233537
      2.56000000	      6.06515245	      1.18078176	    -11.45203687	      0.41008000	      0.91444024	      0.01282455	     10.00299746	     -2.63232950	      2.69731604	    -70.72264658	    -18.54395035	      5.02766655	     12.21937720	      0.91597521	    -14.13220860	    -28.76206435	      6.26808497	     -5.56174610	     -8.65341445	     -6.11486687	      7.11019292
      2.57000000	      6.24107376	      1.26100641	    -11.31138707	      0.41836526	      0.91552093	      0.01235367	     11.32781033	     -2.74368128	      2.49987004	    -71.61096115	    -17.33180739	      4.72983062	     11.34725097	      1.25240039	    -14.02386605	    -28.47435795	      6.66599435	     -5.66642043	     -8.94329602	     -6.15488431	      6.55665444
      2.58000000	      6.41467608	      1.25680632	    -11.10436119	      0.42652883	      0.91664915	      0.01190381	     12.55134960	     -2.75237241	      2.23761663	    -72.16606822	    -16.04449496	      4.39785379	     10.47693726	      1.49876878	    -13.82993543	    -28.19741789	      7.05543689	     -5.76680487	     -9.25384246	     -6.09566942	      5.96495016
      2.59000000	      6.58890490	      1.18253653	    -10.85880416	      0.43456116	      0.91781267	      0.01151731	     13.67718989	     -2.67633668	      1.92722733	    -72.39939753	    -14.71207559	      3.97811875	      9.60134965	      1.66963435	    -13.55091262	    -27.92175388	      7.45971245	     -5.87832833	     -9.58212716	     -5.96108313	      5.36294769
